<?xml version="1.0" encoding="UTF-8"?><svg xmlns="http://www.w3.org/2000/svg" viewBox="0 0 186 390.12"><defs><style>.d{fill:#f752a9;}.e{fill:none;stroke:#1c1828;stroke-miterlimit:10;stroke-width:4.08px;}.f{fill:#1c1828;}</style></defs><g id="a"/><g id="b"><g id="c"><g><path class="d" d="M136.13,334.97c-107.56-12.58-99.53-13.24-99.53-13.24L115.98,102.91l-25.19,3.93,14.92-68.43-41.96-1.79L73.32,0l57.95,2.47-23.68,86.07,30.06-.72-67.92,208.3,79.8,6.4-1.4,32.97-11.99-.51Z"/><rect class="d" y="220.85" width="186" height="169.27"/><g><path class="f" d="M46.35,286.9v-15.47h4.25c1.11,0,1.95,.31,2.51,.93s.84,1.52,.84,2.71v7.24c0,1.46-.26,2.6-.77,3.39s-1.41,1.2-2.69,1.2h-4.15Zm3.11-2.73h.54c.57,0,.85-.28,.85-.83v-7.98c0-.52-.07-.85-.21-1s-.42-.22-.84-.22h-.34v10.03Z"/><path class="f" d="M58.86,287.04c-.94,0-1.68-.18-2.24-.53s-.96-.86-1.2-1.52-.36-1.46-.36-2.39v-5.3c0-1.22,.35-2.15,1.05-2.78s1.67-.94,2.9-.94c2.53,0,3.8,1.24,3.8,3.73v.96c0,1.16-.01,1.94-.04,2.34h-4.57v2.55c0,.23,.01,.46,.04,.69s.09,.41,.2,.56,.27,.22,.5,.22c.33,0,.53-.14,.62-.43s.12-.65,.12-1.11v-1.27h3.13v.75c0,.98-.12,1.81-.37,2.47s-.65,1.17-1.23,1.5-1.36,.51-2.36,.51Zm-.67-8.01h1.49v-1.78c0-.47-.06-.82-.18-1.02s-.29-.31-.53-.31c-.25,0-.45,.1-.58,.3s-.21,.54-.21,1.04v1.78Z"/><path class="f" d="M65.64,286.9l-2.12-13.18h3.16l.76,8.81,.85-8.81h3.15l-2.15,13.18h-3.64Z"/><path class="f" d="M75.95,287.04c-.94,0-1.68-.18-2.24-.53s-.96-.86-1.2-1.52-.36-1.46-.36-2.39v-5.3c0-1.22,.35-2.15,1.05-2.78s1.67-.94,2.9-.94c2.53,0,3.8,1.24,3.8,3.73v.96c0,1.16-.01,1.94-.04,2.34h-4.57v2.55c0,.23,.01,.46,.04,.69s.09,.41,.2,.56,.27,.22,.5,.22c.33,0,.53-.14,.62-.43s.12-.65,.12-1.11v-1.27h3.13v.75c0,.98-.12,1.81-.37,2.47s-.65,1.17-1.23,1.5-1.36,.51-2.36,.51Zm-.67-8.01h1.49v-1.78c0-.47-.06-.82-.18-1.02s-.29-.31-.53-.31c-.25,0-.45,.1-.58,.3s-.21,.54-.21,1.04v1.78Z"/><path class="f" d="M81.05,286.9v-15.47h3.2v15.47h-3.2Z"/><path class="f" d="M89.34,287.04c-2.62,0-3.94-1.36-3.94-4.09v-5.29c0-1.24,.35-2.23,1.05-2.98s1.66-1.11,2.89-1.11,2.2,.37,2.9,1.11,1.05,1.73,1.05,2.98v5.29c0,2.72-1.32,4.09-3.95,4.09Zm0-2.43c.26,0,.45-.1,.57-.29s.17-.43,.17-.72v-6.44c0-.77-.25-1.15-.74-1.15s-.74,.38-.74,1.15v6.44c0,.29,.06,.53,.17,.72s.3,.29,.57,.29Z"/><path class="f" d="M94.45,289.09v-15.38h3.2v1.41c.19-.49,.46-.87,.8-1.14s.83-.41,1.47-.41c.86,0,1.47,.31,1.82,.94s.53,1.45,.53,2.46v6.49c0,.67-.1,1.28-.29,1.82s-.49,.97-.9,1.28-.94,.47-1.59,.47c-.86,0-1.47-.52-1.85-1.55v3.6h-3.2Zm3.95-4.51c.33,0,.53-.16,.59-.49s.1-.73,.1-1.21v-5.15c0-.49-.03-.89-.1-1.22s-.26-.49-.59-.49-.55,.17-.63,.5-.12,.73-.12,1.21v5.15c0,.47,.04,.88,.12,1.21s.29,.5,.63,.5Z"/><path class="f" d="M107.17,287.04c-.94,0-1.68-.18-2.24-.53s-.96-.86-1.2-1.52-.36-1.46-.36-2.39v-5.3c0-1.22,.35-2.15,1.05-2.78s1.67-.94,2.9-.94c2.53,0,3.8,1.24,3.8,3.73v.96c0,1.16-.01,1.94-.04,2.34h-4.57v2.55c0,.23,.01,.46,.04,.69s.09,.41,.2,.56,.27,.22,.5,.22c.33,0,.53-.14,.62-.43s.12-.65,.12-1.11v-1.27h3.13v.75c0,.98-.12,1.81-.37,2.47s-.65,1.17-1.23,1.5-1.36,.51-2.36,.51Zm-.67-8.01h1.49v-1.78c0-.47-.06-.82-.18-1.02s-.29-.31-.53-.31c-.25,0-.45,.1-.58,.3s-.21,.54-.21,1.04v1.78Z"/><path class="f" d="M114.86,287.04c-.61,0-1.09-.11-1.45-.33s-.62-.53-.8-.92-.29-.85-.35-1.38-.08-1.09-.08-1.7v-5.73c0-1.01,.18-1.83,.54-2.46s.97-.94,1.83-.94c.64,0,1.13,.14,1.47,.41s.61,.65,.8,1.14v-3.69h3.2v15.47h-3.2v-1.4c-.18,.47-.41,.85-.7,1.12s-.71,.41-1.26,.41Zm1.2-2.46c.3,0,.5-.12,.6-.36s.15-.67,.15-1.29v-5.55c0-.31-.05-.62-.14-.92s-.29-.45-.6-.45c-.34,0-.55,.14-.64,.43s-.13,.6-.13,.94v5.55c0,1.1,.25,1.65,.76,1.65Z"/><path class="f" d="M130.71,287.04c-.52,0-.93-.13-1.26-.38s-.58-.64-.77-1.16v1.41h-3.2v-15.47h3.2v3.69c.19-.49,.46-.87,.8-1.14s.83-.41,1.47-.41c.86,0,1.47,.31,1.82,.94s.53,1.45,.53,2.46v6.49c0,.67-.09,1.28-.28,1.82s-.47,.97-.85,1.28-.87,.47-1.47,.47Zm-1.3-2.45c.33,0,.54-.16,.61-.49s.11-.73,.11-1.21v-5.15c0-.49-.04-.89-.11-1.22s-.27-.49-.6-.49-.55,.17-.62,.5-.11,.73-.11,1.21v5.15c0,.47,.04,.88,.11,1.21s.28,.5,.62,.5Z"/><path class="f" d="M134.22,289.09v-2h1.51c.23,0,.34-.08,.34-.24,0-.08,0-.17-.03-.25l-2.07-12.89h3.01l.88,9.7,1.04-9.7h3.03l-2.44,13.87c-.09,.5-.26,.87-.51,1.13s-.66,.38-1.23,.38h-3.55Z"/></g><g><path class="f" d="M56.37,319.92v-12.9c0-.17,.1-.32,.31-.43,.21-.11,.44-.17,.69-.17,.28,0,.47,.08,.56,.24l4.72,6.98,4.74-6.98c.09-.16,.26-.24,.5-.24s.47,.06,.7,.18,.34,.26,.34,.42v12.9c0,.17-.07,.31-.22,.41-.15,.1-.32,.15-.52,.15-.49,0-.74-.19-.74-.56v-10.74l-3.64,5.28c-.32,.47-.71,.7-1.18,.7-.43,0-.81-.23-1.14-.7l-3.64-5.28v10.74c0,.17-.07,.31-.22,.41-.15,.1-.32,.15-.52,.15-.49,0-.74-.19-.74-.56Z"/><path class="f" d="M71.15,316.84c0-1.79,.7-3.33,2.1-4.62,1.4-1.29,2.99-1.94,4.76-1.94,1.21,0,2.25,.46,3.1,1.38,.85,.92,1.28,1.97,1.28,3.14l-.02,5.24c0,.17-.08,.31-.25,.41-.17,.1-.35,.15-.55,.15-.44,0-.66-.19-.66-.56v-3.38c-1.08,1.4-2.11,2.41-3.09,3.04-.98,.63-1.99,.94-3.03,.94-.96,0-1.81-.39-2.54-1.17-.73-.78-1.1-1.66-1.1-2.63Zm1.44,.04c0,.76,.27,1.34,.8,1.73,.53,.39,1.1,.59,1.7,.59,.69,0,1.49-.34,2.38-1.03,.89-.69,1.64-1.45,2.23-2.3,.59-.85,.89-1.51,.89-1.99,0-.4-.12-.76-.35-1.07-.23-.31-.52-.54-.86-.69s-.65-.26-.93-.33c-.28-.07-.51-.11-.7-.11-1.31,0-2.49,.52-3.56,1.57s-1.6,2.26-1.6,3.63Z"/><path class="f" d="M84.19,316.84c0-1.79,.7-3.33,2.1-4.62,1.4-1.29,2.99-1.94,4.76-1.94,1.11,0,2.07,.39,2.9,1.18v-5.46c0-.35,.24-.52,.72-.52,.51,0,.76,.17,.76,.52v13.92c0,.37-.25,.56-.74,.56-.2,0-.37-.05-.52-.15-.15-.1-.22-.24-.22-.41v-3.26c-1.08,1.4-2.11,2.41-3.09,3.04-.98,.63-1.99,.94-3.03,.94-.96,0-1.81-.39-2.54-1.17-.73-.78-1.1-1.66-1.1-2.63Zm1.44,.04c0,.76,.27,1.34,.8,1.73,.53,.39,1.1,.59,1.7,.59,.69,0,1.49-.34,2.38-1.03,.89-.69,1.64-1.45,2.23-2.3,.59-.85,.89-1.51,.89-1.99,0-.4-.12-.76-.35-1.07-.23-.31-.52-.54-.86-.69s-.65-.26-.93-.33c-.28-.07-.51-.11-.7-.11-1.31,0-2.49,.52-3.56,1.57s-1.6,2.26-1.6,3.63Z"/><path class="f" d="M97.39,315.2c0-.85,.19-1.61,.56-2.28,.37-.67,.87-1.19,1.48-1.58s1.27-.68,1.98-.87c.71-.19,1.43-.29,2.16-.29,1.31,0,2.32,.28,3.04,.85,.72,.57,1.08,1.26,1.08,2.09,0,.89-.42,1.65-1.26,2.28-.84,.63-2.03,.94-3.58,.94-1.39,0-2.71-.2-3.96-.6,.15,.99,.61,1.81,1.38,2.48s1.73,1,2.86,1c.6,0,1.22-.09,1.87-.28,.65-.19,1.16-.45,1.53-.8,.05-.11,.16-.16,.32-.16,.19,0,.39,.08,.6,.25,.21,.17,.32,.34,.32,.51-.33,.68-.98,1.18-1.95,1.49-.97,.31-1.9,.47-2.81,.47-1.64,0-2.99-.54-4.04-1.62s-1.58-2.37-1.58-3.88Zm1.58-1c1,.44,2.24,.66,3.72,.66,1.16,0,2.04-.18,2.64-.55,.6-.37,.9-.78,.9-1.23,0-.4-.25-.74-.75-1.01-.5-.27-1.24-.41-2.23-.41-1.07,0-1.96,.24-2.67,.71-.71,.47-1.25,1.08-1.61,1.83Z"/><path class="f" d="M109.75,319.92v-13.9c0-.36,.25-.54,.76-.54,.2,0,.37,.05,.51,.14,.14,.09,.21,.23,.21,.4v13.9c0,.17-.07,.31-.22,.41-.15,.1-.32,.15-.52,.15-.49,0-.74-.19-.74-.56Z"/><path class="f" d="M113.51,316.4v-5.4c0-.17,.07-.31,.21-.41,.14-.1,.3-.15,.49-.15,.49,0,.74,.19,.74,.56v5.22c0,.49,.13,.93,.4,1.32s.6,.68,1.01,.88c.41,.2,.81,.35,1.2,.45,.39,.1,.76,.15,1.09,.15,.95,0,1.84-.29,2.68-.88,.84-.59,1.43-1.37,1.78-2.34v-4.8c0-.36,.25-.54,.76-.54,.2,0,.37,.05,.51,.14,.14,.09,.21,.23,.21,.4v9.58c0,.79-.18,1.51-.53,2.17s-.81,1.19-1.37,1.59c-.56,.4-1.17,.71-1.82,.92-.65,.21-1.3,.32-1.94,.32-1.09,0-2.16-.25-3.21-.76s-1.58-1.19-1.59-2.04c0-.21,.07-.38,.21-.49,.14-.11,.31-.17,.51-.17,.21,0,.4,.06,.56,.18,.16,.12,.24,.27,.24,.46,0,.43,.38,.76,1.14,.99,.76,.23,1.51,.35,2.24,.35,.6,0,1.2-.11,1.79-.33,.59-.22,1.12-.6,1.59-1.14,.47-.54,.7-1.18,.7-1.91v-2.32c-1.21,1.39-2.76,2.08-4.64,2.08-1.31,0-2.46-.38-3.46-1.13-1-.75-1.5-1.74-1.5-2.95Z"/><path class="f" d="M126.99,319.96v-8.94c0-.17,.07-.31,.21-.4,.14-.09,.31-.14,.51-.14,.51,0,.76,.18,.76,.54v1.58c.67-.72,1.47-1.29,2.42-1.71,.95-.42,1.91-.63,2.88-.63,1.25,0,2.3,.39,3.15,1.17s1.27,1.8,1.27,3.05c0,.12,0,.73-.01,1.83,0,1.1,0,2.3,0,3.61,0,.17-.07,.31-.22,.41-.15,.1-.32,.15-.52,.15-.49,0-.74-.19-.74-.56v-5.26c0-.95-.34-1.67-1.01-2.18-.67-.51-1.37-.76-2.09-.76-.97,0-1.97,.32-2.99,.97-1.02,.65-1.73,1.46-2.13,2.45v4.82c0,.36-.25,.54-.76,.54-.2,0-.37-.05-.51-.14-.14-.09-.21-.23-.21-.4Z"/><path class="f" d="M60.45,343.74c0-.05,.01-.12,.04-.2l1.36-3.6h-.82c-.36,0-.54-.25-.54-.76,0-.2,.05-.37,.14-.51,.09-.14,.23-.21,.4-.21h1.38l2.78-7.28c.11-.21,.25-.38,.44-.51,.19-.13,.35-.19,.5-.19s.31,.07,.5,.2c.19,.13,.33,.3,.42,.5l2.78,7.28h1.3c.17,0,.31,.07,.41,.22,.1,.15,.15,.32,.15,.52,0,.49-.19,.74-.56,.74h-.72l1.38,3.6c.03,.08,.04,.15,.04,.2,0,.2-.1,.37-.3,.52s-.4,.22-.6,.22c-.21,0-.37-.1-.48-.3l-1.62-4.24h-5.38l-1.62,4.24c-.11,.2-.27,.3-.48,.3-.2,0-.4-.07-.6-.22-.2-.15-.3-.32-.3-.52Zm3.56-5.28h4.24l-2.12-5.58-2.12,5.58Z"/><path class="f" d="M73.69,343.92v-8.86c0-.36,.25-.54,.76-.54,.2,0,.37,.05,.51,.14,.14,.09,.21,.23,.21,.4v2.5c.51-1.09,1.07-1.92,1.69-2.48,.62-.56,1.44-.84,2.47-.84,.72,0,1.45,.09,2.18,.28,.39,.19,.58,.44,.58,.76,0,.23-.05,.39-.14,.48s-.25,.15-.46,.18c-.68-.16-1.23-.24-1.66-.24-.99,0-1.89,.49-2.7,1.46-.81,.97-1.47,2.24-1.96,3.8v2.96c0,.17-.07,.31-.22,.41-.15,.1-.32,.15-.52,.15-.49,0-.74-.19-.74-.56Z"/><path class="f" d="M82.31,340.84c0-1.79,.7-3.33,2.1-4.62,1.4-1.29,2.99-1.94,4.76-1.94,1.21,0,2.25,.46,3.1,1.38,.85,.92,1.28,1.97,1.28,3.14l-.02,5.24c0,.17-.08,.31-.25,.41-.17,.1-.35,.15-.55,.15-.44,0-.66-.19-.66-.56v-3.38c-1.08,1.4-2.11,2.41-3.09,3.04-.98,.63-1.99,.94-3.03,.94-.96,0-1.81-.39-2.54-1.17-.73-.78-1.1-1.66-1.1-2.63Zm1.44,.04c0,.76,.27,1.34,.8,1.73,.53,.39,1.1,.59,1.7,.59,.69,0,1.49-.34,2.38-1.03,.89-.69,1.64-1.45,2.23-2.3,.59-.85,.89-1.51,.89-1.99,0-.4-.12-.76-.35-1.07-.23-.31-.52-.54-.86-.69s-.65-.26-.93-.33c-.28-.07-.51-.11-.7-.11-1.31,0-2.49,.52-3.56,1.57s-1.6,2.26-1.6,3.63Z"/><path class="f" d="M95.79,343.96v-8.94c0-.17,.07-.31,.21-.4,.14-.09,.31-.14,.51-.14,.51,0,.76,.18,.76,.54v1.58c.67-.72,1.47-1.29,2.42-1.71,.95-.42,1.91-.63,2.88-.63,1.25,0,2.3,.39,3.15,1.17s1.27,1.8,1.27,3.05c0,.12,0,.73-.01,1.83,0,1.1,0,2.3,0,3.61,0,.17-.07,.31-.22,.41-.15,.1-.32,.15-.52,.15-.49,0-.74-.19-.74-.56v-5.26c0-.95-.34-1.67-1.01-2.18-.67-.51-1.37-.76-2.09-.76-.97,0-1.97,.32-2.99,.97-1.02,.65-1.73,1.46-2.13,2.45v4.82c0,.36-.25,.54-.76,.54-.2,0-.37-.05-.51-.14-.14-.09-.21-.23-.21-.4Z"/><path class="f" d="M108.81,340.84c0-1.79,.7-3.33,2.1-4.62,1.4-1.29,2.99-1.94,4.76-1.94,1.21,0,2.25,.46,3.1,1.38,.85,.92,1.28,1.97,1.28,3.14l-.02,5.24c0,.17-.08,.31-.25,.41-.17,.1-.35,.15-.55,.15-.44,0-.66-.19-.66-.56v-3.38c-1.08,1.4-2.11,2.41-3.09,3.04-.98,.63-1.99,.94-3.03,.94-.96,0-1.81-.39-2.54-1.17-.73-.78-1.1-1.66-1.1-2.63Zm1.44,.04c0,.76,.27,1.34,.8,1.73,.53,.39,1.1,.59,1.7,.59,.69,0,1.49-.34,2.38-1.03,.89-.69,1.64-1.45,2.23-2.3,.59-.85,.89-1.51,.89-1.99,0-.4-.12-.76-.35-1.07-.23-.31-.52-.54-.86-.69s-.65-.26-.93-.33c-.28-.07-.51-.11-.7-.11-1.31,0-2.49,.52-3.56,1.57s-1.6,2.26-1.6,3.63Z"/></g><rect class="e" x="22.37" y="243.31" width="141.26" height="128.18"/></g></g></g></svg>