<svg viewBox="0 0 1364.7 865.17" xmlns="http://www.w3.org/2000/svg"><defs><style>.d,.f,.g,.i,.k,.l,.n,.q,.r,.s{fill-rule:evenodd}.g,.t{fill:#fff}.d{fill:#14baee}.f{fill:#e74993}.i{fill:#bb661d}.k,.u{fill:#fbca38}.l{fill:#e40076}.n{fill:#0d1536}.q{fill:#1f2b64}.r{fill:#724a22}.s{fill:#d4006e}</style></defs><path class="d" d="M299.82 319.09c.83 0 1.51.68 1.51 1.51s-.68 1.51-1.51 1.51-1.51-.68-1.51-1.51.68-1.51 1.51-1.51zm550.74 67.58c.83 0 1.51.68 1.51 1.51s-.68 1.51-1.51 1.51-1.51-.68-1.51-1.51.68-1.51 1.51-1.51zM602.07 636.89c.83 0 1.51.68 1.51 1.51s-.68 1.51-1.51 1.51-1.51-.68-1.51-1.51.68-1.51 1.51-1.51zm397.02 95.2c.83 0 1.51.68 1.51 1.51s-.68 1.51-1.51 1.51-1.51-.68-1.51-1.51.68-1.51 1.51-1.51zm160.14 35.95c1.7 0 3.08 1.38 3.08 3.08s-1.38 3.08-3.08 3.08-3.08-1.38-3.08-3.08 1.38-3.08 3.08-3.08zm52.95-399.99c.83 0 1.51.68 1.51 1.51s-.68 1.51-1.51 1.51-1.51-.68-1.51-1.51.68-1.51 1.51-1.51zM960.45 26.07c.83 0 1.51.68 1.51 1.51s-.68 1.51-1.51 1.51-1.51-.68-1.51-1.51.68-1.51 1.51-1.51zM706.56 153.88c.84 0 1.51.68 1.51 1.51s-.68 1.51-1.51 1.51-1.51-.68-1.51-1.51.68-1.51 1.51-1.51zM3.35 279.62c1.7 0 3.08 1.38 3.08 3.08s-1.38 3.08-3.08 3.08S.27 284.4.27 282.7s1.38-3.08 3.08-3.08z"/><path class="f" d="M36.38 90.6c.83 0 1.51.68 1.51 1.51s-.68 1.51-1.51 1.51-1.51-.68-1.51-1.51.68-1.51 1.51-1.51zm732.95 356.44c.84 0 1.51.68 1.51 1.51s-.68 1.51-1.51 1.51-1.51-.68-1.51-1.51.68-1.51 1.51-1.51zM54.51 519.37c.84 0 1.51.68 1.51 1.51s-.68 1.51-1.51 1.51-1.51-.68-1.51-1.51.68-1.51 1.51-1.51zM914.2 189.48c.83 0 1.51.68 1.51 1.51s-.68 1.51-1.51 1.51-1.51-.68-1.51-1.51.68-1.51 1.51-1.51zm400.7 412.79c.83 0 1.51.68 1.51 1.51s-.68 1.51-1.51 1.51-1.51-.68-1.51-1.51.68-1.51 1.51-1.51zm-901.57 60.45c.83 0 1.51.68 1.51 1.51s-.68 1.51-1.51 1.51-1.51-.68-1.51-1.51.68-1.51 1.51-1.51zm39.51 159.11c.83 0 1.51.68 1.51 1.51s-.68 1.51-1.51 1.51-1.51-.68-1.51-1.51.68-1.51 1.51-1.51zm41.07-569.74c1.7 0 3.08 1.38 3.08 3.08s-1.38 3.08-3.08 3.08-3.08-1.38-3.08-3.08 1.38-3.08 3.08-3.08zM213.57 321.5c1.7 0 3.08 1.38 3.08 3.08s-1.38 3.08-3.08 3.08-3.08-1.38-3.08-3.08 1.38-3.08 3.08-3.08zM18.02 391.83c1.7 0 3.08 1.38 3.08 3.08s-1.38 3.08-3.08 3.08-3.08-1.38-3.08-3.08 1.38-3.08 3.08-3.08zM638.93 38.74c1.7 0 3.08 1.38 3.08 3.08s-1.38 3.08-3.08 3.08-3.08-1.38-3.08-3.08 1.38-3.08 3.08-3.08zm324.71 79.44c1.7 0 3.08 1.38 3.08 3.08s-1.38 3.08-3.08 3.08-3.08-1.38-3.08-3.08 1.38-3.08 3.08-3.08zM526.67 613.87c1.7 0 3.08 1.38 3.08 3.08s-1.38 3.08-3.08 3.08-3.08-1.38-3.08-3.08 1.38-3.08 3.08-3.08zm418.18 197.98c.83 0 1.51.68 1.51 1.51s-.68 1.51-1.51 1.51-1.51-.68-1.51-1.51.68-1.51 1.51-1.51zM1139.8 33.12c.83 0 1.51.68 1.51 1.51s-.68 1.51-1.51 1.51-1.51-.68-1.51-1.51.68-1.51 1.51-1.51zm197.24 418.65c1.7 0 3.08 1.38 3.08 3.08s-1.38 3.08-3.08 3.08-3.08-1.38-3.08-3.08 1.38-3.08 3.08-3.08z"/><path class="k" d="M14.84 0c.83 0 1.51.68 1.51 1.51s-.68 1.51-1.51 1.51-1.51-.68-1.51-1.51S14.01 0 14.84 0zm421.64 239.86c.84 0 1.51.68 1.51 1.51s-.68 1.51-1.51 1.51-1.51-.68-1.51-1.51.68-1.51 1.51-1.51zm364.21-190.2c.83 0 1.51.68 1.51 1.51s-.68 1.51-1.51 1.51-1.51-.68-1.51-1.51.68-1.51 1.51-1.51z"/><circle class="u" cx="1180.4" cy="686.97" r="1.51"/><path class="k" d="M976.43 613.14c.83 0 1.51.68 1.51 1.51s-.68 1.51-1.51 1.51-1.51-.68-1.51-1.51.68-1.51 1.51-1.51zM35.72 190.31c1.7 0 3.08 1.38 3.08 3.08s-1.38 3.08-3.08 3.08-3.08-1.38-3.08-3.08 1.38-3.08 3.08-3.08zM408.41 394.6c1.7 0 3.08 1.38 3.08 3.08s-1.38 3.08-3.08 3.08-3.08-1.38-3.08-3.08 1.38-3.08 3.08-3.08zm199.48 32.82c1.7 0 3.08 1.38 3.08 3.08s-1.38 3.08-3.08 3.08-3.08-1.38-3.08-3.08 1.38-3.08 3.08-3.08zm279.8 131.26c1.7 0 3.08 1.38 3.08 3.08s-1.38 3.08-3.08 3.08-3.08-1.38-3.08-3.08 1.38-3.08 3.08-3.08zm76.21-282.17c.83 0 1.51.68 1.51 1.51s-.68 1.51-1.51 1.51-1.51-.68-1.51-1.51.68-1.51 1.51-1.51zM127.96 502.76c.83 0 1.51.68 1.51 1.51s-.68 1.51-1.51 1.51-1.51-.68-1.51-1.51.68-1.51 1.51-1.51zm573.2-125.86c.84 0 1.51.68 1.51 1.51s-.68 1.51-1.51 1.51-1.51-.68-1.51-1.51.68-1.51 1.51-1.51zM51.01 330.41c.83 0 1.51.68 1.51 1.51s-.68 1.51-1.51 1.51-1.51-.68-1.51-1.51.68-1.51 1.51-1.51zm1244.63 187.07c1.7 0 3.08 1.38 3.08 3.08s-1.38 3.08-3.08 3.08-3.08-1.38-3.08-3.08 1.38-3.08 3.08-3.08zm47.49-153.72c1.7 0 3.08 1.38 3.08 3.08s-1.38 3.08-3.08 3.08-3.08-1.38-3.08-3.08 1.38-3.08 3.08-3.08z"/><path class="g" d="M50.03 30.66c.83 0 1.51.68 1.51 1.51s-.68 1.51-1.51 1.51-1.51-.68-1.51-1.51.68-1.51 1.51-1.51zm65.84 51.81c.83 0 1.51.68 1.51 1.51s-.68 1.51-1.51 1.51-1.51-.68-1.51-1.51.68-1.51 1.51-1.51zm4.11 58.08c.83 0 1.51.68 1.51 1.51s-.68 1.51-1.51 1.51-1.51-.68-1.51-1.51.68-1.51 1.51-1.51zm48.36 33.68c.83 0 1.51.68 1.51 1.51s-.68 1.51-1.51 1.51-1.51-.68-1.51-1.51.68-1.51 1.51-1.51zm102.76 63.04c.83 0 1.51.68 1.51 1.51s-.68 1.51-1.51 1.51-1.51-.68-1.51-1.51.68-1.51 1.51-1.51zm-124.35 22.45c.83 0 1.51.68 1.51 1.51s-.68 1.51-1.51 1.51-1.51-.68-1.51-1.51.68-1.51 1.51-1.51zm291.24 93.91c.83 0 1.51.68 1.51 1.51s-.68 1.51-1.51 1.51-1.51-.68-1.51-1.51.68-1.51 1.51-1.51zm60.66 88.31c.83 0 1.51.68 1.51 1.51s-.68 1.51-1.51 1.51-1.51-.68-1.51-1.51.68-1.51 1.51-1.51zm105.36-105.36c.83 0 1.51.68 1.51 1.51s-.68 1.51-1.51 1.51-1.51-.68-1.51-1.51.68-1.51 1.51-1.51zM278.87 117.23c.84 0 1.51.68 1.51 1.51s-.68 1.51-1.51 1.51-1.51-.68-1.51-1.51.68-1.51 1.51-1.51zm407.61 395.52c.84 0 1.51.68 1.51 1.51s-.68 1.51-1.51 1.51-1.51-.68-1.51-1.51.68-1.51 1.51-1.51zm101.9 100.17c.83 0 1.51.68 1.51 1.51s-.68 1.51-1.51 1.51-1.51-.68-1.51-1.51.68-1.51 1.51-1.51zm-474.75-60.66c.83 0 1.51.68 1.51 1.51s-.68 1.51-1.51 1.51-1.51-.68-1.51-1.51.68-1.51 1.51-1.51zM626.25 103.2c.84 0 1.51.68 1.51 1.51s-.68 1.51-1.51 1.51-1.51-.68-1.51-1.51.68-1.51 1.51-1.51zm449.05-50.09c.84 0 1.51.68 1.51 1.51s-.68 1.51-1.51 1.51-1.51-.68-1.51-1.51.68-1.51 1.51-1.51zm-590.68 0c.83 0 1.51.68 1.51 1.51s-.68 1.51-1.51 1.51-1.51-.68-1.51-1.51.68-1.51 1.51-1.51zm-371.33 585.5c.83 0 1.51.68 1.51 1.51s-.68 1.51-1.51 1.51-1.51-.68-1.51-1.51.68-1.51 1.51-1.51zm766.85 100.18c.83 0 1.51.68 1.51 1.51s-.68 1.51-1.51 1.51-1.51-.68-1.51-1.51.68-1.51 1.51-1.51zm122.41-227.77c.83 0 1.51.68 1.51 1.51s-.68 1.51-1.51 1.51-1.51-.68-1.51-1.51.68-1.51 1.51-1.51zM664.03 802.91c.83 0 1.51.68 1.51 1.51s-.68 1.51-1.51 1.51-1.51-.68-1.51-1.51.68-1.51 1.51-1.51zm-330.32-36.27c.83 0 1.51.68 1.51 1.51s-.68 1.51-1.51 1.51-1.51-.68-1.51-1.51.68-1.51 1.51-1.51zm-195.16 36.27c.83 0 1.51.68 1.51 1.51s-.68 1.51-1.51 1.51-1.51-.68-1.51-1.51.68-1.51 1.51-1.51zM1268.31 37.57c.84 0 1.51.68 1.51 1.51s-.68 1.51-1.51 1.51-1.51-.68-1.51-1.51.68-1.51 1.51-1.51zm-29.36 158.89c.83 0 1.51.68 1.51 1.51s-.68 1.51-1.51 1.51-1.51-.68-1.51-1.51.68-1.51 1.51-1.51zm-13.82 331.61c.83 0 1.51.68 1.51 1.51s-.68 1.51-1.51 1.51-1.51-.68-1.51-1.51.68-1.51 1.51-1.51zm65.64 252.17c.83 0 1.51.68 1.51 1.51s-.68 1.51-1.51 1.51-1.51-.68-1.51-1.51.68-1.51 1.51-1.51zM872.8 275.91c.83 0 1.51.68 1.51 1.51s-.68 1.51-1.51 1.51-1.51-.68-1.51-1.51.68-1.51 1.51-1.51zm-383.21-96.5c.84 0 1.51.68 1.51 1.51s-.68 1.51-1.51 1.51-1.51-.68-1.51-1.51.68-1.51 1.51-1.51zM144.16 45.61c1.7 0 3.08 1.38 3.08 3.08s-1.38 3.08-3.08 3.08-3.08-1.38-3.08-3.08 1.38-3.08 3.08-3.08zm69.08 107.94c1.7 0 3.08 1.38 3.08 3.08s-1.38 3.08-3.08 3.08-3.08-1.38-3.08-3.08 1.38-3.08 3.08-3.08zm710.72 303.23c1.7 0 3.08 1.38 3.08 3.08s-1.38 3.08-3.08 3.08-3.08-1.38-3.08-3.08 1.38-3.08 3.08-3.08zm184.81 132.99c1.7 0 3.08 1.38 3.08 3.08s-1.38 3.08-3.08 3.08-3.08-1.38-3.08-3.08 1.38-3.08 3.08-3.08zm184.8-459.42c1.7 0 3.08 1.38 3.08 3.08s-1.38 3.08-3.08 3.08-3.08-1.38-3.08-3.08 1.38-3.08 3.08-3.08zm-155.44 0c1.7 0 3.08 1.38 3.08 3.08s-1.38 3.08-3.08 3.08-3.08-1.38-3.08-3.08 1.38-3.08 3.08-3.08zM850.07 814.67c1.7 0 3.08 1.38 3.08 3.08s-1.38 3.08-3.08 3.08-3.08-1.38-3.08-3.08 1.38-3.08 3.08-3.08zM727.45 678.23c1.7 0 3.08 1.38 3.08 3.08s-1.38 3.08-3.08 3.08-3.08-1.38-3.08-3.08 1.38-3.08 3.08-3.08zm-518.53 32.44c1.7 0 3.08 1.38 3.08 3.08s-1.38 3.08-3.08 3.08-3.08-1.38-3.08-3.08 1.38-3.08 3.08-3.08zM55.21 727.94c1.7 0 3.08 1.38 3.08 3.08s-1.38 3.08-3.08 3.08-3.08-1.38-3.08-3.08 1.38-3.08 3.08-3.08zm309.16-443.88c1.7 0 3.08 1.38 3.08 3.08s-1.38 3.08-3.08 3.08-3.08-1.38-3.08-3.08 1.38-3.08 3.08-3.08zM227.92 31.47c.83 0 1.51.68 1.51 1.51s-.68 1.51-1.51 1.51-1.51-.68-1.51-1.51.68-1.51 1.51-1.51zm-25.91 48.36c.83 0 1.51.68 1.51 1.51s-.68 1.51-1.51 1.51-1.51-.68-1.51-1.51.68-1.51 1.51-1.51zm305.49 255.4c.84 0 1.51.68 1.51 1.51s-.68 1.51-1.51 1.51-1.51-.68-1.51-1.51.68-1.51 1.51-1.51zm291.89 428.33c.83 0 1.51.68 1.51 1.51s-.68 1.51-1.51 1.51-1.51-.68-1.51-1.51.68-1.51 1.51-1.51zm461.15-58.72c.83 0 1.51.68 1.51 1.51s-.68 1.51-1.51 1.51-1.51-.68-1.51-1.51.68-1.51 1.51-1.51zm-196.9-283.25c.83 0 1.51.68 1.51 1.51s-.68 1.51-1.51 1.51-1.51-.68-1.51-1.51.68-1.51 1.51-1.51zm10.37 58.72c.83 0 1.51.68 1.51 1.51s-.68 1.51-1.51 1.51-1.51-.68-1.51-1.51.68-1.51 1.51-1.51zM820.55 691.02c.83 0 1.51.68 1.51 1.51s-.68 1.51-1.51 1.51-1.51-.68-1.51-1.51.68-1.51 1.51-1.51zM573.57 561.49c.83 0 1.51.68 1.51 1.51s-.68 1.51-1.51 1.51-1.51-.68-1.51-1.51.68-1.51 1.51-1.51zM317.95 461.31c.83 0 1.51.68 1.51 1.51s-.68 1.51-1.51 1.51-1.51-.68-1.51-1.51.68-1.51 1.51-1.51zm-150.26 196.9c.83 0 1.51.68 1.51 1.51s-.68 1.51-1.51 1.51-1.51-.68-1.51-1.51.68-1.51 1.51-1.51zm-145.3-34.76c.83 0 1.51.68 1.51 1.51s-.68 1.51-1.51 1.51-1.51-.68-1.51-1.51.68-1.51 1.51-1.51zm3.46-150.26c.83 0 1.51.68 1.51 1.51s-.68 1.51-1.51 1.51-1.51-.68-1.51-1.51.68-1.51 1.51-1.51zM265.92 525c.84 0 1.51.68 1.51 1.51s-.68 1.51-1.51 1.51-1.51-.68-1.51-1.51.68-1.51 1.51-1.51z"/><circle class="t" cx="772.19" cy="302.2" r="1.51"/><path class="g" d="M1105.53 290.33c.83 0 1.51.68 1.51 1.51s-.68 1.51-1.51 1.51-1.51-.68-1.51-1.51.68-1.51 1.51-1.51zm-89.81-81.18c.83 0 1.51.68 1.51 1.51s-.68 1.51-1.51 1.51-1.51-.68-1.51-1.51.68-1.51 1.51-1.51zm310.88 93.27c.83 0 1.51.68 1.51 1.51s-.68 1.51-1.51 1.51-1.51-.68-1.51-1.51.68-1.51 1.51-1.51zM804.79 107.46c.84 0 1.51.68 1.51 1.51s-.68 1.51-1.51 1.51-1.51-.68-1.51-1.51.68-1.51 1.51-1.51zm-568.34 59c1.7 0 3.08 1.38 3.08 3.08s-1.38 3.08-3.08 3.08-3.08-1.38-3.08-3.08 1.38-3.08 3.08-3.08zM126.36 315.94c.83 0 1.51.68 1.51 1.51s-.68 1.51-1.51 1.51-1.51-.68-1.51-1.51.68-1.51 1.51-1.51zM92.01 352.7c1.7 0 3.08 1.38 3.08 3.08s-1.38 3.08-3.08 3.08-3.08-1.38-3.08-3.08 1.38-3.08 3.08-3.08zm98.04 78.75c.83 0 1.51.68 1.51 1.51s-.68 1.51-1.51 1.51-1.51-.68-1.51-1.51.68-1.51 1.51-1.51zm1099.76-2.6c.83 0 1.51.68 1.51 1.51s-.68 1.51-1.51 1.51-1.51-.68-1.51-1.51.68-1.51 1.51-1.51zM71.78 837.59c.84 0 1.51.68 1.51 1.51s-.68 1.51-1.51 1.51-1.51-.68-1.51-1.51.68-1.51 1.51-1.51zm-68.7-82.95c1.7 0 3.08 1.38 3.08 3.08s-1.38 3.08-3.08 3.08S0 759.42 0 757.72s1.38-3.08 3.08-3.08z"/><path class="d" d="M335.69 512.4c1.14 0 2.06.92 2.06 2.06s-.92 2.06-2.06 2.06-2.06-.92-2.06-2.06.92-2.06 2.06-2.06z"/><path class="d" d="M336.36 513.78h-1.33l.66-10.03.67 10.03zm0 1.37h-1.33l.66 10.03.67-10.03zM335.01 513.8v1.33l-10.03-.66 10.03-.67zm1.36 0v1.33l10.04-.66-10.04-.67z"/><path class="g" d="M465.41 506.89c1.14 0 2.06.92 2.06 2.06s-.92 2.06-2.06 2.06-2.06-.92-2.06-2.06.92-2.06 2.06-2.06z"/><path class="g" d="M466.07 508.27h-1.33l.67-10.03.66 10.03zm0 1.36h-1.33l.67 10.03.66-10.03zM464.73 508.29v1.33l-10.04-.67 10.04-.66zm1.36 0v1.33l10.03-.67-10.03-.66zM276.28 181.07c1.14 0 2.06.92 2.06 2.06s-.92 2.06-2.06 2.06-2.06-.92-2.06-2.06.92-2.06 2.06-2.06z"/><path class="g" d="M276.95 182.46h-1.33l.66-10.04.67 10.04zm0 1.36h-1.33l.66 10.03.67-10.03zm-1.35-1.35v1.33l-10.03-.66 10.03-.67zm1.36 0v1.33l10.04-.66-10.04-.67zM176.63 22.01c1.14 0 2.06.92 2.06 2.06s-.92 2.06-2.06 2.06-2.06-.92-2.06-2.06.92-2.06 2.06-2.06z"/><path class="g" d="M177.3 23.39h-1.33l.66-10.03.67 10.03zm0 1.36h-1.33l.66 10.03.67-10.03zm-1.35-1.35v1.34l-10.03-.67 10.03-.67zm1.36 0v1.34l10.04-.67-10.04-.67zM83.95 231.94c1.14 0 2.06.92 2.06 2.06s-.92 2.06-2.06 2.06-2.06-.92-2.06-2.06.92-2.06 2.06-2.06z"/><path class="g" d="M84.61 233.32h-1.33l.67-10.03.66 10.03zm0 1.36h-1.33l.67 10.03.66-10.03zm-1.34-1.34v1.33L73.23 234l10.04-.66zm1.36 0v1.33l10.03-.67-10.03-.66zM45.88 389.83c1.14 0 2.06.92 2.06 2.06s-.92 2.06-2.06 2.06-2.06-.92-2.06-2.06.92-2.06 2.06-2.06z"/><path class="g" d="M46.54 391.22h-1.33l.67-10.04.66 10.04zm0 1.36h-1.33l.67 10.03.66-10.03zm-1.35-1.35v1.33l-10.03-.66 10.03-.67zm1.37 0v1.33l10.03-.66-10.03-.67zM1137.25 444.18c1.14 0 2.06.92 2.06 2.06s-.92 2.06-2.06 2.06-2.06-.92-2.06-2.06.92-2.06 2.06-2.06z"/><path class="g" d="M1137.9 445.57h-1.33l.66-10.03.67 10.03zm0 1.36h-1.33l.66 10.03.67-10.03zM1136.6 445.58v1.33l-10.03-.66 10.03-.67zm1.36 0v1.33l10.03-.66-10.03-.67z"/><path class="k" d="M1061.77 135.6c1.14 0 2.06.92 2.06 2.06s-.92 2.06-2.06 2.06-2.06-.92-2.06-2.06.92-2.06 2.06-2.06z"/><path class="k" d="M1062.4 136.99h-1.33l.66-10.03.67 10.03zm0 1.36h-1.33l.66 10.03.67-10.03zM1061.1 137v1.33l-10.03-.66 10.03-.67zm1.37 0v1.33l10.03-.66-10.03-.67z"/><path class="g" d="M28.94 826.46c1.14 0 2.06.92 2.06 2.06s-.92 2.06-2.06 2.06-2.06-.92-2.06-2.06.92-2.06 2.06-2.06z"/><path class="g" d="M29.61 827.85h-1.33l.66-10.04.67 10.04zm0 1.36h-1.33l.66 10.03.67-10.03zM28.26 827.86v1.33l-10.03-.66 10.03-.67zm1.36 0v1.33l10.04-.66-10.04-.67z"/><path class="d" d="M788.95 524.43c1.14 0 2.06.92 2.06 2.06s-.92 2.06-2.06 2.06-2.06-.92-2.06-2.06.92-2.06 2.06-2.06z"/><path class="d" d="M789.62 525.82h-1.33l.66-10.04.67 10.04zm0 1.36h-1.33l.66 10.03.67-10.03zM788.27 525.83v1.33l-10.03-.66 10.03-.67zm1.37 0v1.33l10.03-.66-10.03-.67z"/><path class="g" d="M439.22 137.37c1.14 0 2.06.92 2.06 2.06s-.92 2.06-2.06 2.06-2.06-.92-2.06-2.06.92-2.06 2.06-2.06z"/><path class="g" d="M439.89 138.75h-1.33l.66-10.03.67 10.03zm0 1.36h-1.33l.66 10.04.67-10.04zM438.54 138.77v1.33l-10.03-.67 10.03-.66zm1.36 0v1.33l10.04-.67-10.04-.66z"/><path class="k" d="M720.95 54.82c1.14 0 2.06.92 2.06 2.06s-.92 2.06-2.06 2.06-2.06-.92-2.06-2.06.92-2.06 2.06-2.06z"/><path class="k" d="M721.62 56.21h-1.33l.66-10.03.67 10.03zm0 1.36h-1.33l.66 10.03.67-10.03zM720.27 56.22v1.33l-10.03-.66 10.03-.67zm1.37 0v1.33l10.03-.66-10.03-.67z"/><path class="g" d="M1181.89 82.1c1.14 0 2.06.92 2.06 2.06s-.92 2.06-2.06 2.06-2.06-.92-2.06-2.06.92-2.06 2.06-2.06z"/><path class="g" d="M1182.6 83.48h-1.33l.66-10.03.67 10.03zm0 1.37h-1.33l.66 10.03.67-10.03zM1181.2 83.5v1.33l-10.03-.67 10.03-.66zm1.37 0v1.33l10.03-.67-10.03-.66zM219.87 804.05c1.14 0 2.06.92 2.06 2.06s-.92 2.06-2.06 2.06-2.06-.92-2.06-2.06.92-2.06 2.06-2.06z"/><path class="g" d="M220.54 805.43h-1.33l.66-10.03.67 10.03zm0 1.36h-1.33l.66 10.03.67-10.03zM219.19 805.45v1.33l-10.03-.67 10.03-.66zm1.37 0v1.33l10.03-.67-10.03-.66zM235.42 652.06c1.14 0 2.06.92 2.06 2.06s-.92 2.06-2.06 2.06-2.06-.92-2.06-2.06.92-2.06 2.06-2.06z"/><path class="g" d="M236.08 653.44h-1.33l.67-10.03.66 10.03zm0 1.36h-1.33l.67 10.04.66-10.04zM234.74 653.46v1.33l-10.03-.67 10.03-.66zm1.36 0v1.33l10.03-.67-10.03-.66zM747.17 734.96c1.14 0 2.06.92 2.06 2.06s-.92 2.06-2.06 2.06-2.06-.92-2.06-2.06.92-2.06 2.06-2.06z"/><path class="g" d="M747.83 736.35h-1.33l.67-10.03.66 10.03zm0 1.36h-1.33l.67 10.03.66-10.03zM746.49 736.36v1.33l-10.03-.66 10.03-.67zm1.36 0v1.33l10.03-.66-10.03-.67zM561.95 396.54c2.17 0 3.94 1.76 3.94 3.93s-1.76 3.93-3.94 3.93-3.93-1.76-3.93-3.93 1.76-3.93 3.93-3.93z"/><path class="g" d="M563.22 399.17h-2.54l1.27-19.12 1.27 19.12zm0 2.6h-2.54l1.27 19.12 1.27-19.12zM560.65 399.21v2.53l-19.12-1.27 19.12-1.26zm2.6 0v2.53l19.12-1.27-19.12-1.26z"/><circle class="t" cx="152.53" cy="349.77" r="5.66"/><path class="g" d="M154.35 347.91h-3.65l1.83-27.5 1.82 27.5zm0 3.73h-3.65l1.83 27.49 1.82-27.49zM150.66 347.95v3.65l-27.49-1.83 27.49-1.82zm3.73 0v3.65l27.5-1.83-27.5-1.82z"/><path class="k" d="M434.05 700.68a3.83 3.83 0 1 1 0 7.66 3.83 3.83 0 0 1 0-7.66z"/><path class="k" d="M435.28 703.25h-2.46l1.23-18.6 1.23 18.6zm0 2.53h-2.46l1.23 18.59 1.23-18.59zM432.79 703.28v2.47l-18.6-1.24 18.6-1.23zm2.53 0v2.47l18.59-1.24-18.59-1.23z"/><path class="d" d="M917.62 49.53a3.93 3.93 0 1 1-.001 7.861 3.93 3.93 0 0 1 .001-7.861z"/><path class="d" d="M918.89 52.17h-2.53l1.26-19.12 1.27 19.12zm0 2.6h-2.53l1.26 19.12 1.27-19.12zM916.32 52.2v2.54l-19.12-1.27 19.12-1.27zm2.6 0v2.54l19.12-1.27-19.12-1.27z"/><path class="g" d="M1329.14 67.91c1.14 0 2.06.92 2.06 2.06s-.92 2.06-2.06 2.06-2.06-.92-2.06-2.06.92-2.06 2.06-2.06z"/><path class="g" d="M1329.8 69.29h-1.33l.66-10.03.67 10.03zm0 1.37h-1.33l.66 10.03.67-10.03zM1328.5 69.31v1.33l-10.03-.67 10.03-.66zm1.37 0v1.33l10.03-.67-10.03-.66z"/><path d="M1180.84 470.88c66.87 0 129.61 17.65 183.85 48.52v345.76H809.31c-.43-7.31-.67-14.67-.67-22.09 0-205.56 166.64-372.2 372.2-372.2z" fill="#4a3b93" fill-rule="evenodd"/><path d="M1180.8 470.88c66.87 0 129.62 17.65 183.85 48.53v345.76h-524.5a372.91 372.91 0 0 1-30.87-44.06c11.38-195.33 173.35-350.22 371.53-350.22z" fill="#5b4c9c" fill-rule="evenodd"/><path d="M1119 606.6c38.25 37.06 29.88 107.75-18.7 157.88s-118.96 60.73-157.21 23.67-29.88-107.75 18.7-157.88 118.96-60.73 157.21-23.67z" fill="#6358a3" fill-rule="evenodd"/><path class="n" d="M1199.2 509.35c-37.12-2.44-67.92 6.39-68.8 19.72-.87 13.33 28.51 26.1 65.63 28.54s67.92-6.39 68.8-19.72c.87-13.33-28.51-26.1-65.63-28.54z"/><path class="q" d="M1199.18 509.35c-37.12-2.44-67.92 6.39-68.8 19.72-.16 2.37.65 4.72 2.28 7 12.57-6.85 36.88-10.49 64.47-8.68 28.45 1.87 52.68 9.02 63.83 17.82 2.33-2.23 3.68-4.69 3.85-7.32.87-13.33-28.51-26.1-65.63-28.54z"/><path d="M876.17 688.1c-14.26 24.2-17.74 47.25-7.76 51.49s29.63-11.95 43.89-36.15 17.74-47.25 7.76-51.49-29.63 11.95-43.89 36.15z" fill="#162044" fill-rule="evenodd"/><path class="q" d="M876.17 688.1c-14.26 24.2-17.74 47.25-7.76 51.49 1.77.75 3.85.86 6.16.39-1.08-10.3 4.22-27.57 14.82-45.56 10.93-18.55 24.53-32.82 35.03-37.87-.94-2.17-2.39-3.75-4.36-4.59-9.98-4.24-29.63 11.95-43.89 36.15z"/><path class="n" d="M1364.7 617.66c-10.23-2.24-18.17-1.23-22.2 3.62-8.01 9.63 1.64 31.61 22.2 54.5v-58.12z"/><path class="q" d="M1364.68 617.66c-10.23-2.24-18.17-1.23-22.2 3.62-1.88 2.26-2.78 5.19-2.81 8.65 7.04.92 15.59 3.73 25.01 8.17v-20.44z"/><path d="M1209.7 585.96c-28.06 2.6-49.29 23.25-47.41 46.13s26.15 39.32 54.22 36.72c28.06-2.6 49.29-23.25 47.41-46.13s-26.15-39.32-54.22-36.72zM879.86 773.07c-4.93 15.24-4 28.51 2.08 29.63s15.01-10.33 19.94-25.58c4.93-15.24 4-28.51-2.08-29.63s-15.01 10.33-19.94 25.58zm165.38-248.77c-16.55 6.36-24.17 20.84-17.02 32.34s26.35 15.67 42.9 9.3c16.55-6.36 24.17-20.84 17.02-32.34s-26.35-15.67-42.9-9.3zm280.25-3.8c-15.41-4.88-28.26-1.56-28.7 7.42-.43 8.98 11.71 20.21 27.12 25.09s28.26 1.56 28.7-7.42c.43-8.98-11.71-20.21-27.12-25.09zm-31.11 206.46c-20.42 10.74-29.82 35.2-21 54.62s32.52 26.46 52.94 15.72 29.82-35.2 21-54.62-32.52-26.46-52.94-15.72zM923.46 592.71c-9.7 12.75-13.22 25.57-7.85 28.64s17.58-4.78 27.29-17.53c9.7-12.75 13.22-25.57 7.85-28.64s-17.58 4.78-27.29 17.53z" style="fill:#50438e;fill-rule:evenodd"/><circle class="u" transform="rotate(-78.47 1218.6 158.08)" cx="1218.6" cy="158.07" r="99.81"/><path class="r" d="M1218.6 58.26c55.12 0 99.81 44.69 99.81 99.81 0 25.49-9.56 48.75-25.29 66.39 17.77-34.99 14.53-84.83-40.64-113.29-55.18-28.47-98.75 24.95-115.27 7.38-3.47-3.69-4.37-8.34-3.17-13.52 17.66-28.09 48.92-46.77 84.55-46.77z"/><path class="i" d="M1218.6 58.26c55.12 0 99.81 44.69 99.81 99.81 0 17.33-4.42 33.63-12.2 47.83-2.5-3.07-2.66-7.84.99-15.04 17.01-33.48 13.92-81.18-38.87-108.41-52.79-27.24-94.48 23.87-110.29 7.06-2.17-2.31-3.29-5.02-3.49-8 17.33-14.52 39.66-23.26 64.03-23.26z"/><path class="r" d="M1283.65 233.77c-17.47 15.02-40.19 24.11-65.04 24.11-55.12 0-99.81-44.69-99.81-99.81 0-6.47.62-12.79 1.8-18.92 3.33-1.92 6.74 3.87 8.19 25.61 1.93 28.99 21.79 72.04 83.99 52.36 46.15-14.6 70.83-1.92 70.87 16.65z"/><path class="i" d="M1257.93 249.83c-12.07 5.18-25.36 8.05-39.32 8.05-21.16 0-40.78-6.59-56.93-17.82 8.41.19 18.09-.98 29.21-3.91 44.2-11.68 67.58-1.27 67.04 13.69z"/><path d="M1280.4 162.82c13.82 42.88-55.3 57.15-110.7 31.63-25.26-11.64-45.92-43.91-17.34-61.35 34.37-20.98 114.22-13.16 128.04 29.72z" fill="#e6ad00" fill-rule="evenodd"/><path class="r" d="M1252.3 165.77c19.17 21.25-22.09 29.61-61.76 15.51-15.62-5.55-39.38-23.06-22.35-33.46 20.48-12.5 64.94-3.31 84.11 17.94z"/><path class="g" d="M203.67 144.47c101.14-27.1 187.63-32.31 193.17-11.64s-71.96 59.4-173.11 86.5c-101.14 27.1-187.63 32.31-193.17 11.64s71.96-59.4 173.11-86.5zm2.9 10.83c-71.88 19.26-126.96 46.78-123.02 61.47s65.4 10.99 137.28-8.27 126.96-46.78 123.02-61.48c-3.94-14.69-65.4-10.99-137.28 8.27z"/><circle transform="rotate(-76.99 213.61 181.48)" cx="213.59" cy="181.48" r="111.36" fill="#e52487"/><path d="M242.41 73.92c39.26 10.52 67.96 40.76 78.33 77.2-18.41 55.57-77.22 87.79-134.49 72.44-39.26-10.52-67.96-40.76-78.33-77.2 18.41-55.57 77.22-87.79 134.49-72.44z" fill="#e5368c" fill-rule="evenodd"/><path class="f" d="M228 100.1c9.74 16.27.35 39.81-20.98 52.58s-46.51 9.92-56.25-6.35-.35-39.81 20.98-52.58 46.51-9.92 56.25 6.35z"/><path class="l" d="M165.79 108.82c12.97 3.47 19.85 19.84 15.37 36.55s-18.62 27.45-31.58 23.97c-12.97-3.47-19.84-19.84-15.37-36.55 4.48-16.72 18.62-27.45 31.58-23.97z"/><path class="s" d="M175.6 115.01c6.24 7.05 8.69 18.62 5.55 30.36-4.48 16.71-18.62 27.45-31.58 23.97-5.34-1.43-9.65-5.05-12.55-9.98-1.36-6.01-1.28-12.8.55-19.65 4.87-18.18 20.25-29.86 34.36-26.08 1.28.34 2.51.8 3.68 1.37z"/><path class="l" d="M219.96 96.97c3.51 2.06 4.23 7.36 1.6 11.85-2.63 4.48-7.6 6.45-11.12 4.39-3.51-2.06-4.23-7.36-1.6-11.84s7.6-6.45 11.12-4.39z"/><path class="s" d="M222.61 100.2c.95 2.48.65 5.72-1.05 8.62-2.63 4.48-7.61 6.45-11.12 4.39-1.14-.67-1.98-1.67-2.51-2.88.2-1.69.78-3.44 1.75-5.09 3.04-5.19 8.8-7.46 12.87-5.08l.07.04z"/><path class="s" d="M222.61 100.2c.94 2.47.65 5.69-1.03 8.58-1.88.98-3.96 1.1-5.63.12-2.45-1.44-3.27-4.78-2.17-8.03 2.84-1.85 6.15-2.24 8.76-.71l.07.04z"/><path class="l" d="M254.24 123.91c10.12 4.82 13.12 19.64 6.7 33.11-6.41 13.47-19.81 20.49-29.93 15.67s-13.12-19.64-6.7-33.11c6.41-13.47 19.81-20.49 29.93-15.67z"/><path class="s" d="M261.49 130.87c3.82 6.85 3.9 16.83-.54 26.15-6.41 13.47-19.81 20.49-29.93 15.67-4.12-1.96-7.06-5.59-8.67-10.11-.12-5.24 1.05-10.93 3.66-16.41 6.98-14.66 21.57-22.3 32.58-17.06 1.03.49 2 1.08 2.89 1.75z"/><path class="l" d="M275.35 183.12c7.63 3.63 9.89 14.81 5.05 24.96-4.83 10.15-14.94 15.44-22.56 11.81-7.63-3.63-9.89-14.81-5.06-24.96 4.84-10.16 14.94-15.44 22.56-11.81z"/><path class="s" d="M280.81 188.37c2.88 5.17 2.94 12.69-.41 19.72-4.83 10.16-14.94 15.45-22.56 11.82-3.11-1.48-5.33-4.21-6.54-7.62-.09-3.95.8-8.24 2.76-12.37 5.26-11.06 16.26-16.82 24.56-12.86.78.37 1.51.81 2.18 1.32z"/><path class="l" d="M200.44 196.11c5.49 2.93 6.87 11.03 3.1 18.1s-11.28 10.43-16.76 7.51c-5.49-2.93-6.87-11.03-3.1-18.1s11.28-10.43 16.76-7.5z"/><path class="s" d="M204.22 199.93c2.07 3.83 1.97 9.31-.68 14.28-3.77 7.07-11.28 10.43-16.76 7.51-2.26-1.21-3.82-3.29-4.62-5.82.01-2.85.76-5.91 2.31-8.81 4.1-7.69 12.27-11.35 18.23-8.16.54.29 1.05.63 1.52 1z"/><path class="l" d="M150.51 189.46c6.78 3.97 8.17 14.21 3.1 22.87s-14.68 12.45-21.47 8.48c-6.78-3.97-8.17-14.21-3.1-22.87s14.68-12.45 21.47-8.48z"/><path class="s" d="M155.64 195.69c1.83 4.8 1.25 11.05-2.03 16.64-5.07 8.66-14.69 12.45-21.47 8.48-2.19-1.29-3.82-3.23-4.85-5.56.39-3.26 1.51-6.64 3.37-9.82 5.87-10.02 17-14.41 24.85-9.81l.13.08z"/><path class="l" d="M223.35 231.72c10.12 4.82 13.12 19.64 6.7 33.11-6.41 13.47-19.81 20.48-29.93 15.67-10.12-4.82-13.12-19.64-6.7-33.11 6.41-13.47 19.81-20.48 29.93-15.67z"/><path class="s" d="M230.6 238.68c3.82 6.85 3.9 16.83-.54 26.15-6.41 13.47-19.81 20.49-29.93 15.67-4.12-1.96-7.06-5.59-8.67-10.11-.12-5.24 1.06-10.93 3.66-16.41 6.98-14.66 21.57-22.3 32.58-17.06 1.03.49 2 1.08 2.89 1.75z"/><path class="g" d="M324.9 185.3c-28.24 11.94-63.02 23.82-101.17 34.04-38.14 10.22-74.19 17.32-104.6 21.1l-7.47-3.55-4.32-6.72 4.06-4.43c25.39.51 65.46-5.45 109.43-17.23 43.99-11.79 81.68-26.67 103.41-39.81l.02.14.1-.2 4.04 3.17-.52 10.14-2.97 3.25v.11z"/></svg>